#!OML:ASF X:\für Bonn\!DataBase\2005_08_11_Bastian_Final\c3d\Bastian.ASF
:FULLY-SPECIFIED
:DEGREES
108
root -6.83137 17.1128 3.77267 538.169 32.6446 -172.444
lowerback 26.5215 0.717798 -5.92702
upperback 15.4466 2.866 0.658974
thorax 2.46208 2.2966 3.46712
lowerneck -10.4064 -14.4101 -24.1817
upperneck -11.9281 -15.4664 39.9728
head 4.84739 -6.42184 16.5569
rclavicle -3.89618e-014 7.95139e-015
rhumerus -27.808 17.3555 -92.5288
rradius 58.7694
rwrist 11.9185
rhand -16.8466 7.57768
rfingers 7.12502
rthumb 9.38332 -22.1935
lclavicle -3.89618e-014 7.95139e-015
lhumerus -23.1005 -42.7052 98.3276
lradius 67.773
lwrist 9.6391
lhand -15.8774 -7.40314
lfingers 7.12502
lthumb 10.3184 22.3237
rfemur -5.13858 -1.19887 22.6199
rtibia 71.1407
rfoot 5.38237 -8.21838
rtoes -13.5586
lfemur -19.6684 -4.24597 -11.0821
ltibia 41.1593
lfoot -8.9309 -6.69893
ltoes -19.5547
109
root -6.81392 17.1119 3.69397 538.056 32.9534 -172.466
lowerback 26.6877 0.705825 -5.92402
upperback 15.4871 2.85469 0.684245
thorax 2.43353 2.29476 3.49144
lowerneck -10.4955 -14.3927 -24.1757
upperneck -11.8857 -15.4337 39.9711
head 4.8632 -6.39814 16.5607
rclavicle 7.95139e-016 2.54444e-014
rhumerus -27.8401 16.8186 -92.3653
rradius 58.4921
rwrist 11.9626
rhand -16.9551 7.51399
rfingers 7.12502
rthumb 9.27869 -22.2618
lclavicle 7.95139e-016 2.54444e-014
lhumerus -23.0563 -42.5079 98.2844
lradius 67.6931
lwrist 9.49839
lhand -15.7664 -7.31746
lfingers 7.12502
lthumb 10.4255 22.4041
rfemur -5.96189 -0.757262 22.7673
rtibia 71.8261
rfoot 4.76439 -8.61466
rtoes -13.2498
lfemur -19.2548 -4.24357 -11.2341
ltibia 41.313
lfoot -9.21184 -6.42151
ltoes -18.7071
110
root -6.79718 17.1122 3.61525 537.942 33.2781 -172.466
lowerback 26.8462 0.680517 -5.90788
upperback 15.5393 2.83193 0.718315
thorax 2.42308 2.28758 3.52174
lowerneck -10.635 -14.3745 -24.1841
upperneck -11.8005 -15.4009 39.9539
head 4.89807 -6.36819 16.5585
rclavicle -1.51076e-014 8.74653e-015
rhumerus -27.8573 16.3322 -92.1918
rradius 58.1851
rwrist 11.9994
rhand -17.0649 7.35901
rfingers 7.12502
rthumb 9.17267 -22.4215
lclavicle -1.51076e-014 8.74653e-015
lhumerus -22.9501 -42.2923 98.2166
lradius 67.5895
lwrist 9.42515
lhand -15.6958 -7.24253
lfingers 7.12502
lthumb 10.4936 22.4756
rfemur -6.77527 -0.29597 22.9389
rtibia 72.4423
rfoot 4.14049 -9.00302
rtoes -12.5613
lfemur -18.8139 -4.22052 -11.3679
ltibia 41.4516
lfoot -9.46848 -6.15814
ltoes -17.736
111
root -6.77933 17.1142 3.53672 537.828 33.603 -172.514
lowerback 26.9506 0.664273 -5.93065
upperback 15.5957 2.8138 0.749333
thorax 2.44217 2.2783 3.57211
lowerneck -10.7862 -14.3626 -24.1736
upperneck -11.7315 -15.3706 39.9244
head 4.92719 -6.33858 16.5446
rclavicle 7.15625e-015 3.26007e-014
rhumerus -27.8376 15.8037 -92.0103
rradius 57.7855
rwrist 12.033
rhand -17.1702 7.21444
rfingers 7.12502
rthumb 9.07114 -22.5705
lclavicle 7.15625e-015 3.26007e-014
lhumerus -22.8288 -42.1443 98.1363
lradius 67.4651
lwrist 9.30761
lhand -15.6848 -7.15829
lfingers 7.12502
lthumb 10.5042 22.5593
rfemur -7.63068 0.12427 23.0566
rtibia 73.008
rfoot 3.50338 -9.34707
rtoes -11.6357
lfemur -18.3869 -4.13346 -11.5438
ltibia 41.5616
lfoot -9.76239 -5.93273
ltoes -17.1046
112
root -6.76177 17.1172 3.45867 537.718 33.9353 -172.511
lowerback 27.0606 0.631134 -5.87997
upperback 15.6714 2.79668 0.768209
thorax 2.48178 2.27697 3.56807
lowerneck -11 -14.3626 -24.1149
upperneck -11.6303 -15.3563 39.89
head 4.97573 -6.30898 16.511
rclavicle 6.44062e-014 4.77083e-015
rhumerus -27.7711 15.2305 -91.8384
rradius 57.3294
rwrist 12.0628
rhand -17.223 7.06846
rfingers 7.12502
rthumb 9.02018 -22.7187
lclavicle 6.44062e-014 4.77083e-015
lhumerus -22.642 -42.0179 98.0209
lradius 67.295
lwrist 9.19486
lhand -15.6874 -7.10461
lfingers 7.12502
lthumb 10.5017 22.6131
rfemur -8.45439 0.538789 23.215
rtibia 73.5101
rfoot 2.78884 -9.63937
rtoes -10.6589
lfemur -17.9281 -4.00471 -11.6701
ltibia 41.6487
lfoot -10.0151 -5.76503
ltoes -16.3273
113
root -6.74368 17.1193 3.38061 537.615 34.2825 -172.534
lowerback 27.1372 0.610218 -5.86955
upperback 15.7287 2.77938 0.798269
thorax 2.51461 2.26924 3.59949
lowerneck -11.1805 -14.358 -24.0891
upperneck -11.5362 -15.3393 39.85
head 5.01769 -6.28241 16.4841
rclavicle -5.40694e-014 4.29375e-014
rhumerus -27.721 14.6764 -91.6488
rradius 56.7955
rwrist 12.0273
rhand -17.2731 7.02028
rfingers 7.12502
rthumb 8.97186 -22.769
lclavicle -5.40694e-014 4.29375e-014
lhumerus -22.5285 -41.8952 97.9478
lradius 67.1666
lwrist 9.11091
lhand -15.7328 -7.02191
lfingers 7.12502
lthumb 10.4579 22.698
rfemur -9.31766 0.9743 23.3605
rtibia 73.9789
rfoot 2.03462 -9.89656
rtoes -9.85409
lfemur -17.4754 -3.8663 -11.8142
ltibia 41.7234
lfoot -10.2992 -5.57894
ltoes -15.5569
114
root -6.72619 17.1222 3.30371 537.492 34.6217 -172.557
lowerback 27.2334 0.571719 -5.85324
upperback 15.7982 2.74472 0.82815
thorax 2.55493 2.2546 3.63171
lowerneck -11.4264 -14.3565 -24.0429
upperneck -11.4079 -15.3239 39.7683
head 5.07109 -6.24931 16.4299
rclavicle -5.56597e-014 1.90833e-014
rhumerus -27.6295 14.1644 -91.4563
rradius 56.2137
rwrist 11.9499
rhand -17.3309 6.96547
rfingers 7.12502
rthumb 8.91606 -22.8261
lclavicle -5.56597e-014 1.90833e-014
lhumerus -22.3687 -41.7463 97.8729
lradius 67.0079
lwrist 8.9955
lhand -15.8035 -6.8801
lfingers 7.12502
lthumb 10.3897 22.8432
rfemur -10.1579 1.41979 23.5085
rtibia 74.4036
rfoot 1.16254 -10.1242
rtoes -9.19157
lfemur -17.008 -3.70149 -11.9618
ltibia 41.7902
lfoot -10.6038 -5.43191
ltoes -15.0749
115
root -6.70798 17.1242 3.22675 537.38 34.9725 -172.579
lowerback 27.3076 0.543621 -5.83658
upperback 15.8614 2.72121 0.863148
thorax 2.59639 2.24401 3.66707
lowerneck -11.6459 -14.345 -23.9984
upperneck -11.2854 -15.2968 39.7103
head 5.11926 -6.21313 16.3925
rclavicle -5.725e-014 1.90833e-014
rhumerus -27.5783 13.6928 -91.2603
rradius 55.6113
rwrist 11.7965
rhand -17.3956 6.96244
rfingers 7.12502
rthumb 8.85357 -22.8318
lclavicle -5.725e-014 1.90833e-014
lhumerus -22.1822 -41.5956 97.8036
lradius 66.8265
lwrist 8.86133
lhand -15.833 -6.78144
lfingers 7.12502
lthumb 10.3612 22.9433
rfemur -11.0115 1.84262 23.6544
rtibia 74.7911
rfoot 0.240206 -10.2898
rtoes -9.03437
lfemur -16.5517 -3.52263 -12.1003
ltibia 41.8631
lfoot -10.913 -5.28815
ltoes -14.585
116
root -6.6894 17.1248 3.15051 537.265 35.319 -172.603
lowerback 27.3745 0.50644 -5.81283
upperback 15.9272 2.68844 0.887313
thorax 2.64582 2.22975 3.68928
lowerneck -11.8951 -14.3329 -23.9062
upperneck -11.1313 -15.2756 39.6209
head 5.17261 -6.17691 16.3275
rclavicle -5.56597e-015 1.03368e-014
rhumerus -27.5212 13.2028 -91.0778
rradius 55.0073
rwrist 11.5873
rhand -17.4388 6.9949
rfingers 7.12502
rthumb 8.81193 -22.8011
lclavicle -5.56597e-015 1.03368e-014
lhumerus -21.9972 -41.479 97.694
lradius 66.6584
lwrist 8.76635
lhand -15.8739 -6.67198
lfingers 7.12502
lthumb 10.3218 23.0547
rfemur -11.8621 2.25577 23.8042
rtibia 75.1436
rfoot -0.712407 -10.4035
rtoes -9.19457
lfemur -16.0972 -3.33939 -12.2391
ltibia 41.9359
lfoot -11.2448 -5.16813
ltoes -14.1201
117
root -6.67172 17.1249 3.07462 537.116 35.6707 -172.647
lowerback 27.4635 0.463647 -5.80515
upperback 15.9972 2.64602 0.913571
thorax 2.6914 2.2103 3.72485
lowerneck -12.1213 -14.3045 -23.7792
upperneck -11.0166 -15.2238 39.5113
head 5.19423 -6.12985 16.2543
rclavicle 9.14409e-015 -9.54166e-015
rhumerus -27.4627 12.83 -90.8883
rradius 54.3552
rwrist 11.2438
rhand -17.5267 7.00392
rfingers 7.12502
rthumb 8.72705 -22.7957
lclavicle 9.14409e-015 -9.54166e-015
lhumerus -21.7823 -41.3031 97.591
lradius 66.4985
lwrist 8.66373
lhand -15.8624 -6.52658
lfingers 7.12502
lthumb 10.3329 23.1996
rfemur -12.6953 2.64444 23.9133
rtibia 75.4604
rfoot -1.70541 -10.4623
rtoes -9.52667
lfemur -15.6214 -3.15188 -12.398
ltibia 42.0172
lfoot -11.6005 -5.05113
ltoes -13.6395
118
root -6.6541 17.123 2.99913 536.942 36.0443 -172.696
lowerback 27.5568 0.430877 -5.77035
upperback 16.0769 2.62633 0.925307
thorax 2.74482 2.20628 3.72382
lowerneck -12.3475 -14.2753 -23.6423
upperneck -10.8793 -15.1798 39.4039
head 5.22418 -6.08609 16.1788
rclavicle 5.4467e-014 -9.38264e-014
rhumerus -27.4004 12.4124 -90.7042
rradius 53.6904
rwrist 10.8344
rhand -17.6279 7.00642
rfingers 7.12502
rthumb 8.6294 -22.7972
lclavicle 5.4467e-014 -9.38264e-014
lhumerus -21.5303 -41.1746 97.4549
lradius 66.3108
lwrist 8.58059
lhand -15.8596 -6.42918
lfingers 7.12502
lthumb 10.3356 23.2968
rfemur -13.5085 3.00749 24.0133
rtibia 75.7391
rfoot -2.69359 -10.479
rtoes -9.99044
lfemur -15.1222 -2.97315 -12.5596
ltibia 42.1043
lfoot -11.9812 -4.89886
ltoes -13.2717
119
root -6.63578 17.1215 2.92391 536.765 36.4388 -172.772
lowerback 27.6438 0.405307 -5.79127
upperback 16.1436 2.59778 0.93745
thorax 2.78711 2.19196 3.75672
lowerneck -12.5705 -14.2265 -23.4457
upperneck -10.7346 -15.114 39.2469
head 5.23384 -6.03393 16.0733
rclavicle 1.59028e-014 3.18055e-015
rhumerus -27.3415 12.0633 -90.5334
rradius 53.0157
rwrist 10.3405
rhand -17.6595 6.91806
rfingers 7.12502
rthumb 8.59894 -22.8868
lclavicle 1.59028e-014 3.18055e-015
lhumerus -21.3112 -41.003 97.313
lradius 66.1587
lwrist 8.5722
lhand -15.8593 -6.29369
lfingers 7.12502
lthumb 10.3359 23.4323
rfemur -14.334 3.36032 24.073
rtibia 75.9725
rfoot -3.66668 -10.464
rtoes -10.5779
lfemur -14.6355 -2.76088 -12.7442
ltibia 42.202
lfoot -12.3732 -4.759
ltoes -13.1192
120
root -6.61837 17.1178 2.84998 536.643 36.8086 -172.79
lowerback 27.7046 0.356568 -5.74058
upperback 16.2289 2.56194 0.96368
thorax 2.86289 2.17868 3.76809
lowerneck -12.8434 -14.1961 -23.2632
upperneck -10.5908 -15.0645 39.1011
head 5.26103 -5.98345 15.9701
rclavicle 4.92986e-014 -2.8625e-014
rhumerus -27.2174 11.7653 -90.3454
rradius 52.2933
rwrist 9.73384
rhand -17.7757 6.76716
rfingers 7.12502
rthumb 8.48685 -23.0423
lclavicle 4.92986e-014 -2.8625e-014
lhumerus -21.0014 -40.8646 97.1337
lradius 65.9805
lwrist 8.58547
lhand -15.8527 -6.21352
lfingers 7.12502
lthumb 10.3422 23.5122
rfemur -15.1819 3.67114 24.1782
rtibia 76.1612
rfoot -4.62579 -10.4186
rtoes -10.9329
lfemur -14.1899 -2.56747 -12.8741
ltibia 42.3042
lfoot -12.7642 -4.64107
ltoes -12.8369
121
root -6.6007 17.1133 2.77585 536.475 37.2135 -172.835
lowerback 27.81 0.325763 -5.69724
upperback 16.287 2.53843 0.96961
thorax 2.88605 2.17238 3.75523
lowerneck -12.9992 -14.134 -23.083
upperneck -10.484 -14.9819 38.9775
head 5.25178 -5.93056 15.8917
rclavicle 7.15625e-015 7.95139e-016
rhumerus -27.1185 11.395 -90.1816
rradius 51.5322
rwrist 9.09825
rhand -17.8333 6.62002
rfingers 7.12502
rthumb 8.43125 -23.1917
lclavicle 7.15625e-015 7.95139e-016
lhumerus -20.7915 -40.719 96.982
lradius 65.8232
lwrist 8.59431
lhand -15.8715 -6.22074
lfingers 7.12502
lthumb 10.3241 23.5058
rfemur -15.9856 3.97934 24.2475
rtibia 76.2915
rfoot -5.59624 -10.3588
rtoes -11.1661
lfemur -13.7039 -2.34056 -13.0221
ltibia 42.4126
lfoot -13.1707 -4.52692
ltoes -12.6571
122
root -6.58221 17.1087 2.70238 536.3 37.6084 -172.915
lowerback 27.8611 0.284391 -5.67577
upperback 16.3737 2.50565 0.96956
thorax 2.96919 2.15976 3.75406
lowerneck -13.2063 -14.0824 -22.9246
upperneck -10.3484 -14.9126 38.8569
head 5.26664 -5.87777 15.8147
rclavicle -5.1684e-014 6.59965e-014
rhumerus -26.9326 11.0114 -90.0141
rradius 50.7187
rwrist 8.49631
rhand -17.8721 6.42931
rfingers 7.12502
rthumb 8.39379 -23.3839
lclavicle -5.1684e-014 6.59965e-014
lhumerus -20.5115 -40.5858 96.7648
lradius 65.7045
lwrist 8.6066
lhand -15.9222 -6.17572
lfingers 7.12502
lthumb 10.2752 23.5533
rfemur -16.8029 4.26559 24.2814
rtibia 76.3695
rfoot -6.53776 -10.3386
rtoes -11.1604
lfemur -13.2359 -2.10982 -13.2053
ltibia 42.5216
lfoot -13.6009 -4.38514
ltoes -12.6881
